# GPOyun OBJ Exporter - Bakery

g Walls_Universal Render Pipeline/Lit
v -4 0 4
v 4 0 4
v -4 6 4
v 4 6 4
v -4 6 -4
v 4 6 -4
v -4 0 -4
v 4 0 -4
v -4 6 4
v 4 6 4
v -4 6 -4
v 4 6 -4
v -4 0 -4
v -4 0 4
v 4 0 4
v 4 0 -4
v 4 0 4
v 4 6 4
v 4 6 -4
v 4 0 -4
v -4 0 -4
v -4 6 -4
v -4 6 4
v -4 0 4
vn 0 0 8
vn 0 0 8
vn 0 0 8
vn 0 0 8
vn 0 6 0
vn 0 6 0
vn 0 0 -8
vn 0 0 -8
vn 0 6 0
vn 0 6 0
vn 0 0 -8
vn 0 0 -8
vn 0 -6 0
vn 0 -6 0
vn 0 -6 0
vn 0 -6 0
vn 8 0 0
vn 8 0 0
vn 8 0 0
vn 8 0 0
vn -8 0 0
vn -8 0 0
vn -8 0 0
vn -8 0 0
vt 0 0
vt 1 0
vt 0 1
vt 1 1
vt 0 1
vt 1 1
vt 0 1
vt 1 1
vt 0 0
vt 1 0
vt 0 0
vt 1 0
vt 0 0
vt 0 1
vt 1 1
vt 1 0
vt 0 0
vt 0 1
vt 1 1
vt 1 0
vt 0 0
vt 0 1
vt 1 1
vt 1 0
f 1/1/1 4/4/4 3/3/3
f 1/1/1 2/2/2 4/4/4
f 9/9/9 6/6/6 5/5/5
f 9/9/9 10/10/10 6/6/6
f 11/11/11 8/8/8 7/7/7
f 11/11/11 12/12/12 8/8/8
f 13/13/13 15/15/15 14/14/14
f 13/13/13 16/16/16 15/15/15
f 17/17/17 19/19/19 18/18/18
f 17/17/17 20/20/20 19/19/19
f 21/21/21 23/23/23 22/22/22
f 21/21/21 24/24/24 23/23/23

g Roof_Universal Render Pipeline/Lit
v -4.25 5.9 4.25
v 4.25 5.9 4.25
v -4.25 6.3 4.25
v 4.25 6.3 4.25
v -4.25 6.3 -4.25
v 4.25 6.3 -4.25
v -4.25 5.9 -4.25
v 4.25 5.9 -4.25
v -4.25 6.3 4.25
v 4.25 6.3 4.25
v -4.25 6.3 -4.25
v 4.25 6.3 -4.25
v -4.25 5.9 -4.25
v -4.25 5.9 4.25
v 4.25 5.9 4.25
v 4.25 5.9 -4.25
v 4.25 5.9 4.25
v 4.25 6.3 4.25
v 4.25 6.3 -4.25
v 4.25 5.9 -4.25
v -4.25 5.9 -4.25
v -4.25 6.3 -4.25
v -4.25 6.3 4.25
v -4.25 5.9 4.25
vn 0 0 8.5
vn 0 0 8.5
vn 0 0 8.5
vn 0 0 8.5
vn 0 0.4 0
vn 0 0.4 0
vn 0 0 -8.5
vn 0 0 -8.5
vn 0 0.4 0
vn 0 0.4 0
vn 0 0 -8.5
vn 0 0 -8.5
vn 0 -0.4 0
vn 0 -0.4 0
vn 0 -0.4 0
vn 0 -0.4 0
vn 8.5 0 0
vn 8.5 0 0
vn 8.5 0 0
vn 8.5 0 0
vn -8.5 0 0
vn -8.5 0 0
vn -8.5 0 0
vn -8.5 0 0
vt 0 0
vt 1 0
vt 0 1
vt 1 1
vt 0 1
vt 1 1
vt 0 1
vt 1 1
vt 0 0
vt 1 0
vt 0 0
vt 1 0
vt 0 0
vt 0 1
vt 1 1
vt 1 0
vt 0 0
vt 0 1
vt 1 1
vt 1 0
vt 0 0
vt 0 1
vt 1 1
vt 1 0
f 25/25/25 28/28/28 27/27/27
f 25/25/25 26/26/26 28/28/28
f 33/33/33 30/30/30 29/29/29
f 33/33/33 34/34/34 30/30/30
f 35/35/35 32/32/32 31/31/31
f 35/35/35 36/36/36 32/32/32
f 37/37/37 39/39/39 38/38/38
f 37/37/37 40/40/40 39/39/39
f 41/41/41 43/43/43 42/42/42
f 41/41/41 44/44/44 43/43/43
f 45/45/45 47/47/47 46/46/46
f 45/45/45 48/48/48 47/47/47

g Door_Universal Render Pipeline/Lit
v -0.75 0 4.149999
v 0.75 0 4.149999
v -0.75 2.5 4.149999
v 0.75 2.5 4.149999
v -0.75 2.5 3.949999
v 0.75 2.5 3.949999
v -0.75 0 3.949999
v 0.75 0 3.949999
v -0.75 2.5 4.149999
v 0.75 2.5 4.149999
v -0.75 2.5 3.949999
v 0.75 2.5 3.949999
v -0.75 0 3.949999
v -0.75 0 4.149999
v 0.75 0 4.149999
v 0.75 0 3.949999
v 0.75 0 4.149999
v 0.75 2.5 4.149999
v 0.75 2.5 3.949999
v 0.75 0 3.949999
v -0.75 0 3.949999
v -0.75 2.5 3.949999
v -0.75 2.5 4.149999
v -0.75 0 4.149999
vn 0 0 0.2
vn 0 0 0.2
vn 0 0 0.2
vn 0 0 0.2
vn 0 2.5 0
vn 0 2.5 0
vn 0 0 -0.2
vn 0 0 -0.2
vn 0 2.5 0
vn 0 2.5 0
vn 0 0 -0.2
vn 0 0 -0.2
vn 0 -2.5 0
vn 0 -2.5 0
vn 0 -2.5 0
vn 0 -2.5 0
vn 1.5 0 0
vn 1.5 0 0
vn 1.5 0 0
vn 1.5 0 0
vn -1.5 0 0
vn -1.5 0 0
vn -1.5 0 0
vn -1.5 0 0
vt 0 0
vt 1 0
vt 0 1
vt 1 1
vt 0 1
vt 1 1
vt 0 1
vt 1 1
vt 0 0
vt 1 0
vt 0 0
vt 1 0
vt 0 0
vt 0 1
vt 1 1
vt 1 0
vt 0 0
vt 0 1
vt 1 1
vt 1 0
vt 0 0
vt 0 1
vt 1 1
vt 1 0
f 49/49/49 52/52/52 51/51/51
f 49/49/49 50/50/50 52/52/52
f 57/57/57 54/54/54 53/53/53
f 57/57/57 58/58/58 54/54/54
f 59/59/59 56/56/56 55/55/55
f 59/59/59 60/60/60 56/56/56
f 61/61/61 63/63/63 62/62/62
f 61/61/61 64/64/64 63/63/63
f 65/65/65 67/67/67 66/66/66
f 65/65/65 68/68/68 67/67/67
f 69/69/69 71/71/71 70/70/70
f 69/69/69 72/72/72 71/71/71

g Window_Universal Render Pipeline/Lit
v -3.166666 3.1 4.099999
v -2.166666 3.1 4.099999
v -3.166666 4.1 4.099999
v -2.166666 4.1 4.099999
v -3.166666 4.1 3.999999
v -2.166666 4.1 3.999999
v -3.166666 3.1 3.999999
v -2.166666 3.1 3.999999
v -3.166666 4.1 4.099999
v -2.166666 4.1 4.099999
v -3.166666 4.1 3.999999
v -2.166666 4.1 3.999999
v -3.166666 3.1 3.999999
v -3.166666 3.1 4.099999
v -2.166666 3.1 4.099999
v -2.166666 3.1 3.999999
v -2.166666 3.1 4.099999
v -2.166666 4.1 4.099999
v -2.166666 4.1 3.999999
v -2.166666 3.1 3.999999
v -3.166666 3.1 3.999999
v -3.166666 4.1 3.999999
v -3.166666 4.1 4.099999
v -3.166666 3.1 4.099999
vn 0 0 0.1
vn 0 0 0.1
vn 0 0 0.1
vn 0 0 0.1
vn 0 1 0
vn 0 1 0
vn 0 0 -0.1
vn 0 0 -0.1
vn 0 1 0
vn 0 1 0
vn 0 0 -0.1
vn 0 0 -0.1
vn 0 -1 0
vn 0 -1 0
vn 0 -1 0
vn 0 -1 0
vn 1 0 0
vn 1 0 0
vn 1 0 0
vn 1 0 0
vn -1 0 0
vn -1 0 0
vn -1 0 0
vn -1 0 0
vt 0 0
vt 1 0
vt 0 1
vt 1 1
vt 0 1
vt 1 1
vt 0 1
vt 1 1
vt 0 0
vt 1 0
vt 0 0
vt 1 0
vt 0 0
vt 0 1
vt 1 1
vt 1 0
vt 0 0
vt 0 1
vt 1 1
vt 1 0
vt 0 0
vt 0 1
vt 1 1
vt 1 0
f 73/73/73 76/76/76 75/75/75
f 73/73/73 74/74/74 76/76/76
f 81/81/81 78/78/78 77/77/77
f 81/81/81 82/82/82 78/78/78
f 83/83/83 80/80/80 79/79/79
f 83/83/83 84/84/84 80/80/80
f 85/85/85 87/87/87 86/86/86
f 85/85/85 88/88/88 87/87/87
f 89/89/89 91/91/91 90/90/90
f 89/89/89 92/92/92 91/91/91
f 93/93/93 95/95/95 94/94/94
f 93/93/93 96/96/96 95/95/95

g Window_Universal Render Pipeline/Lit
v 2.166666 3.1 4.099999
v 3.166666 3.1 4.099999
v 2.166666 4.1 4.099999
v 3.166666 4.1 4.099999
v 2.166666 4.1 3.999999
v 3.166666 4.1 3.999999
v 2.166666 3.1 3.999999
v 3.166666 3.1 3.999999
v 2.166666 4.1 4.099999
v 3.166666 4.1 4.099999
v 2.166666 4.1 3.999999
v 3.166666 4.1 3.999999
v 2.166666 3.1 3.999999
v 2.166666 3.1 4.099999
v 3.166666 3.1 4.099999
v 3.166666 3.1 3.999999
v 3.166666 3.1 4.099999
v 3.166666 4.1 4.099999
v 3.166666 4.1 3.999999
v 3.166666 3.1 3.999999
v 2.166666 3.1 3.999999
v 2.166666 4.1 3.999999
v 2.166666 4.1 4.099999
v 2.166666 3.1 4.099999
vn 0 0 0.1
vn 0 0 0.1
vn 0 0 0.1
vn 0 0 0.1
vn 0 1 0
vn 0 1 0
vn 0 0 -0.1
vn 0 0 -0.1
vn 0 1 0
vn 0 1 0
vn 0 0 -0.1
vn 0 0 -0.1
vn 0 -1 0
vn 0 -1 0
vn 0 -1 0
vn 0 -1 0
vn 1 0 0
vn 1 0 0
vn 1 0 0
vn 1 0 0
vn -1 0 0
vn -1 0 0
vn -1 0 0
vn -1 0 0
vt 0 0
vt 1 0
vt 0 1
vt 1 1
vt 0 1
vt 1 1
vt 0 1
vt 1 1
vt 0 0
vt 1 0
vt 0 0
vt 1 0
vt 0 0
vt 0 1
vt 1 1
vt 1 0
vt 0 0
vt 0 1
vt 1 1
vt 1 0
vt 0 0
vt 0 1
vt 1 1
vt 1 0
f 97/97/97 100/100/100 99/99/99
f 97/97/97 98/98/98 100/100/100
f 105/105/105 102/102/102 101/101/101
f 105/105/105 106/106/106 102/102/102
f 107/107/107 104/104/104 103/103/103
f 107/107/107 108/108/108 104/104/104
f 109/109/109 111/111/111 110/110/110
f 109/109/109 112/112/112 111/111/111
f 113/113/113 115/115/115 114/114/114
f 113/113/113 116/116/116 115/115/115
f 117/117/117 119/119/119 118/118/118
f 117/117/117 120/120/120 119/119/119
